<svg xmlns="http://www.w3.org/2000/svg" enable-background="new 0 0 32 32" viewBox="0 0 32 32"><path fill="none" stroke="#000" stroke-linecap="round" stroke-linejoin="round" stroke-miterlimit="10" stroke-width="2" d="M8 10H5c-1.105 0-2 .895-2 2v4c0 1.105.895 2 2 2h3l12 5V5L8 10zM23 16.829c1.165-.412 2-1.523 2-2.829 0-1.304-.832-2.414-1.994-2.827M26 19.736c1.811-1.267 3-3.364 3-5.736s-1.189-4.47-3-5.736"/><path fill="none" stroke="#000" stroke-linecap="round" stroke-linejoin="round" stroke-miterlimit="10" stroke-width="2" d="
	M9,18.417V26c0,0.552,0.448,1,1,1h2c0.552,0,1-0.448,1-1v-5.917L9,18.417z"/></svg>