<svg xmlns="http://www.w3.org/2000/svg" width="100" height="100" viewBox="0 0 100 100"><path d="M43.3 39.6c-.6 2.5-3.7 1.1-2.4 1.4l-19.7-5c-1.1-.3-1.7-1.4-1.4-2.4.3-1.1 1.4-1.7 2.4-1.4l19.7 5.1c1 .2 1.6 1.3 1.4 2.3zm-1.5 11l-19.7-5.1c-1.1-.3-2.2.4-2.4 1.4-.3 1.1.4 2.2 1.4 2.4l19.7 5.1c-1.3-.3 1.8.9 2.4-1.4.3-1-.3-2.1-1.4-2.4zm-5.9 11.7l-13.8-3.6c-1.1-.3-2.2.4-2.4 1.4-.3 1.1.4 2.2 1.4 2.4l13.8 3.6c-1.3-.3 1.8.9 2.4-1.4.3-1-.3-2.1-1.4-2.4zM90 19v52.5c0 .9-.6 1.7-1.5 1.9l-38 9.5c-.3.1-.7.1-1 0l-38-9.5c-.9-.2-1.5-1-1.5-1.9V19c0-1.3 1.2-2.3 2.5-1.9L50 26.5l37.5-9.4c1.3-.4 2.5.6 2.5 1.9zM48 30.1l-34-8.5v48.3l34 8.5V30.1zm38-8.5l-34 8.5v48.3l34-8.5V21.6zm-5.8 12c-.3-1.1-1.4-1.7-2.4-1.4l-19.7 5.1c-1.1.3-1.7 1.4-1.4 2.4.6 2.5 3.7 1.1 2.4 1.4L78.8 36c1.1-.3 1.7-1.4 1.4-2.4zm0 13.4c-.3-1.1-1.4-1.7-2.4-1.4l-19.7 5.1c-1.1.3-1.7 1.4-1.4 2.4.6 2.4 3.7 1.1 2.4 1.4l19.7-5.1c1.1-.3 1.7-1.4 1.4-2.4zm-5.9 14.7c-.3-1.1-1.4-1.7-2.4-1.4l-13.8 3.6c-1.1.3-1.7 1.4-1.4 2.4.6 2.5 3.7 1.1 2.4 1.4l13.8-3.5c1.1-.3 1.7-1.4 1.4-2.5z"/><path fill="#00F" d="M1644-930V754H-140V-930h1784m8-8H-148V762h1800V-938z"/></svg>