<svg xmlns="http://www.w3.org/2000/svg" enable-background="new 0 0 24 24" viewBox="0 0 24 24"><path fill="none" stroke="#303c42" stroke-linecap="round" stroke-linejoin="round" d="M16.5,2.5H19c0.8,0,1.5,0.7,1.5,1.5v18c0,0.8-0.7,1.5-1.5,1.5H5c-0.8,0-1.5-0.7-1.5-1.5V4    c0-0.8,0.7-1.5,1.5-1.5h2.5"/><path fill="none" stroke="#303c42" stroke-linecap="round" stroke-linejoin="round" d="M13.7,1.5c-0.6-1-1.8-1.3-2.7-0.7c-0.3,0.2-0.5,0.4-0.7,0.7H8.5c-0.6,0-1,0.4-1,1V3    c0,0.8,0.7,1.5,1.5,1.5h6c0.8,0,1.5-0.7,1.5-1.5V2.5c0-0.6-0.4-1-1-1H13.7z"/><circle cx="7.5" cy="9.5" r="1" fill="none" stroke="#303c42" stroke-linecap="round" stroke-linejoin="round"/><circle cx="7.5" cy="14.5" r="1" fill="none" stroke="#303c42" stroke-linecap="round" stroke-linejoin="round"/><circle cx="7.5" cy="19.5" r="1" fill="none" stroke="#303c42" stroke-linecap="round" stroke-linejoin="round"/><line x1="11.5" x2="17.5" y1="9.5" y2="9.5" fill="none" stroke="#303c42" stroke-linecap="round" stroke-linejoin="round"/><line x1="11.5" x2="17.5" y1="14.5" y2="14.5" fill="none" stroke="#303c42" stroke-linecap="round" stroke-linejoin="round"/><line x1="11.5" x2="17.5" y1="19.5" y2="19.5" fill="none" stroke="#303c42" stroke-linecap="round" stroke-linejoin="round"/></svg>