<svg xmlns="http://www.w3.org/2000/svg" viewBox="0 0 64 64"><path d="M50.41 42l-3.7-4.87a.5.5 0 0 1-.1-.3V23.08A15 15 0 0 0 32.54 7.94 14.78 14.78 0 0 0 17 22.71V37.34a.5.5 0 0 1-.1.3L13.62 42a4.5 4.5 0 0 0 3.32 7.53H47.06A4.5 4.5 0 0 0 50.41 42zm-2 3.6a1.47 1.47 0 0 1-1.37.9H16.94A1.5 1.5 0 0 1 15.85 44l.11-.13 3.37-4.44A3.52 3.52 0 0 0 20 37.34V22.71A11.78 11.78 0 0 1 31.82 10.93h.58A12 12 0 0 1 43.61 23.08V36.88A3.52 3.52 0 0 0 44.32 39l3.74 4.92.1.11A1.47 1.47 0 0 1 48.43 45.65zM37.92 53.41a8 8 0 0 1-11.94 0 1.5 1.5 0 0 1 2.23-2 5 5 0 0 0 7.47 0 1.5 1.5 0 0 1 2.23 2z"/></svg>