<svg xmlns="http://www.w3.org/2000/svg" enable-background="new 0 0 60 60" viewBox="0 0 60 60"><path d="M30,5c-6.902771,0-13.1606445,2.8125-17.6890869,7.3511963c-0.0109863,0.0100098-0.0253906,0.0131836-0.0360107,0.0238037
	c-0.0137939,0.0137329-0.0183105,0.0322266-0.0311279,0.0465698C7.769043,16.9411621,5,23.1525269,5,30
	s2.769043,13.0588379,7.2437744,17.5784302c0.0128174,0.0143433,0.017334,0.0328369,0.0311279,0.0465698
	c0.0106201,0.0106201,0.0250244,0.0137939,0.0360107,0.0238037C16.8393555,52.1875,23.097168,55,30,55
	c13.7851563,0,25-11.2148438,25-25S43.7851563,5,30,5z M24.5320435,7.6621094
	c-1.9706421,2.0566406-3.6147461,5.2034912-4.7602539,9.0899048c-1.9208374-0.9570313-3.7075806-2.1913452-5.322937-3.6799316
	C17.2578125,10.489502,20.7089844,8.5981445,24.5320435,7.6621094z M13.0184937,14.5050659
	c1.8759155,1.7402954,3.9716187,3.1650391,6.2258301,4.241333C18.5133057,21.8348999,18.0784302,25.3019409,18.0117188,29H7.0253296
	C7.2650146,23.4294434,9.4924927,18.3659668,13.0184937,14.5050659z M7.0253296,31h10.9863892
	c0.0667114,3.6980591,0.5015869,7.1651001,1.232605,10.2536011c-2.2542114,1.0762939-4.3499146,2.5010376-6.2258301,4.241333
	C9.4924927,41.6340332,7.2650146,36.5705566,7.0253296,31z M14.4488525,46.9279175
	c1.6153564-1.4885864,3.4020996-2.7229004,5.322937-3.6799316c1.1455078,3.8864136,2.7896118,7.0332642,4.7602539,9.0899048
	C20.7089844,51.4018555,17.2578125,49.510498,14.4488525,46.9279175z M29,52.8796997
	c-3.0443115-0.7327881-5.732666-4.7654419-7.3612061-10.4641724C23.9661255,41.5073242,26.444458,40.9920044,29,40.8828735
	V52.8796997z M29,38.8583984c-2.7265015,0.1066284-5.3734741,0.6499023-7.864502,1.5935669
	C20.4784546,37.578064,20.0778198,34.3707886,20.0114136,31H29V38.8583984z M29,29h-8.9885864
	c0.0664063-3.3707886,0.467041-6.578064,1.1240845-9.4519653C23.6265259,20.4916992,26.2734985,21.0349731,29,21.1416016V29z
	 M29,19.1171265c-2.555542-0.1091309-5.0338745-0.6244507-7.3612061-1.5326538
	C23.267334,11.8857422,25.9556885,7.8530884,29,7.1203003V19.1171265z M45.5532837,13.0740967
	c-1.6152954,1.4885254-3.4025269,2.7230225-5.3244019,3.6799316c-1.1455078-3.8873901-2.789917-7.0349731-4.7609253-9.0919189
	C39.2919922,8.5983887,42.7439575,10.4905396,45.5532837,13.0740967z M31,7.1203003
	c3.0446167,0.7328491,5.7331543,4.7662964,7.3616333,10.4658203C36.0340576,18.4938354,33.5552368,19.0081787,31,19.1173096
	V7.1203003z M31,21.1416626c2.7261963-0.1066284,5.373291-0.6498413,7.864624-1.5931396
	C39.5216064,22.4223022,39.9221802,25.6293945,39.9885864,29H31V21.1416626z M31,31h8.9885864
	c-0.0664063,3.3706055-0.46698,6.5776978-1.1239624,9.4514771C36.373291,39.5081787,33.7261963,38.9649658,31,38.8583374V31z
	 M31,52.8796997V40.8826904c2.5552368,0.1091309,5.0340576,0.6234741,7.3616333,1.531189
	C36.7331543,48.1134033,34.0446167,52.1468506,31,52.8796997z M35.4679565,52.3378906
	c1.9710083-2.0569458,3.6154175-5.2045288,4.7609253-9.0919189c1.921875,0.9569092,3.7091064,2.1914063,5.3244019,3.6799316
	C42.7439575,49.5094604,39.2919922,51.4016113,35.4679565,52.3378906z M46.9824219,45.4939575
	c-1.8756104-1.7399292-3.9716187-3.1644287-6.2266846-4.2405396C41.4867554,38.164978,41.9215698,34.697998,41.9882813,31
	h10.9863892C52.7349854,36.5701294,50.5078735,41.6331177,46.9824219,45.4939575z M41.9882813,29
	c-0.0667114-3.697998-0.5015259-7.164978-1.2325439-10.253418c2.2550659-1.0761108,4.3510742-2.5006104,6.2266846-4.2405396
	C50.5078735,18.3668823,52.7349854,23.4298706,52.9746704,29H41.9882813z"/></svg>